<?xml version="1.0" encoding="UTF-8" standalone="no"?>
<!-- Created with Inkscape (http://www.inkscape.org/) -->

<svg
   xmlns:dc="http://purl.org/dc/elements/1.1/"
   xmlns:cc="http://creativecommons.org/ns#"
   xmlns:rdf="http://www.w3.org/1999/02/22-rdf-syntax-ns#"
   xmlns:svg="http://www.w3.org/2000/svg"
   xmlns="http://www.w3.org/2000/svg"
   xmlns:sodipodi="http://sodipodi.sourceforge.net/DTD/sodipodi-0.dtd"
   xmlns:inkscape="http://www.inkscape.org/namespaces/inkscape"
   width="141.11111mm"
   height="141.11111mm"
   viewBox="0 0 500.00001 500.00001"
   id="svg2"
   version="1.1"
   inkscape:version="0.91 r13725"
   sodipodi:docname="dz.svg">
  <defs
     id="defs4">
    <clipPath
       id="clipPath4152"
       clipPathUnits="userSpaceOnUse">
      <path
         inkscape:connector-curvature="0"
         id="path4154"
         d="M 0,400 400,400 400,0 0,0 0,400 Z" />
    </clipPath>
  </defs>
  <sodipodi:namedview
     id="base"
     pagecolor="#ffffff"
     bordercolor="#666666"
     borderopacity="1.0"
     inkscape:pageopacity="0.0"
     inkscape:pageshadow="2"
     inkscape:zoom="0.98994949"
     inkscape:cx="-6.8190486"
     inkscape:cy="267.3201"
     inkscape:document-units="px"
     inkscape:current-layer="layer1"
     showgrid="false"
     fit-margin-top="0"
     fit-margin-left="0"
     fit-margin-right="0"
     fit-margin-bottom="0"
     inkscape:window-width="1858"
     inkscape:window-height="1057"
     inkscape:window-x="-8"
     inkscape:window-y="-8"
     inkscape:window-maximized="1" />
  <metadata
     id="metadata7">
    <rdf:RDF>
      <cc:Work
         rdf:about="">
        <dc:format>image/svg+xml</dc:format>
        <dc:type
           rdf:resource="http://purl.org/dc/dcmitype/StillImage" />
        <dc:title></dc:title>
      </cc:Work>
    </rdf:RDF>
  </metadata>
  <g
     inkscape:label="Layer 1"
     inkscape:groupmode="layer"
     id="layer1"
     transform="translate(-115.71429,-268.07646)">
    <g
       transform="matrix(1.25,0,0,-1.25,115.71429,768.07646)"
       inkscape:label="logo-dz"
       id="g4144">
      <path
         inkscape:connector-curvature="0"
         id="path4146"
         style="fill:#100f0d;fill-opacity:1;fill-rule:nonzero;stroke:none"
         d="M 0,0 400,0 400,400 0,400 0,0 Z" />
      <g
         id="g4148">
        <g
           clip-path="url(#clipPath4152)"
           id="g4150">
          <g
             transform="translate(180.9023,237.5566)"
             id="g4156">
            <path
               inkscape:connector-curvature="0"
               id="path4158"
               style="fill:#ffffff;fill-opacity:1;fill-rule:nonzero;stroke:none"
               d="m 0,0 c 0,14.098 -2.466,25.98 -7.413,35.637 -4.947,9.683 -12.332,17.28 -22.149,22.858 -7.133,4.022 -14.722,6.811 -22.746,8.395 -8.037,1.569 -17.65,2.368 -28.834,2.368 l -22.625,0 0,-138.883 22.625,0 c 11.59,0 21.708,0.841 30.348,2.537 8.633,1.694 16.558,4.834 23.789,9.433 8.997,5.703 15.752,13.243 20.25,22.59 C -2.256,-25.703 0,-14.044 0,0 m 25.12,-0.379 c 0,-16.412 -3.594,-31.295 -10.755,-44.636 -7.161,-13.343 -16.698,-23.713 -28.596,-31.056 -8.275,-5.102 -17.483,-8.773 -27.635,-11.042 -10.161,-2.258 -23.545,-3.392 -40.145,-3.392 l -45.658,0 0,180.63 45.182,0 c 17.637,0 31.672,-1.275 42.085,-3.84 10.391,-2.537 19.199,-6.04 26.409,-10.469 C -1.681,68.122 7.911,57.892 14.792,45.125 21.679,32.344 25.12,17.181 25.12,-0.379" />
          </g>
          <g
             transform="translate(346.7656,148.5566)"
             id="g4160">
            <path
               inkscape:connector-curvature="0"
               id="path4162"
               style="fill:#ffffff;fill-opacity:1;fill-rule:nonzero;stroke:none"
               d="m 0,0 -138.329,0 0,22.021 108.915,134.472 -104.759,0 0,21.127 131.507,0 0,-21.43 L -112.689,21.125 0,21.125 0,0 Z" />
          </g>
          <path
             inkscape:connector-curvature="0"
             id="path4164"
             style="fill:#f47216;fill-opacity:1;fill-rule:nonzero;stroke:none"
             d="m 346.174,73.822 -292.713,0 0,15.449 292.713,0 0,-15.449 z" />
          <path
             inkscape:connector-curvature="0"
             id="path4166"
             style="fill:#f89c0e;fill-opacity:1;fill-rule:nonzero;stroke:none"
             d="m 346.174,73.822 -195.142,0 0,15.449 195.142,0 0,-15.449 z" />
          <path
             inkscape:connector-curvature="0"
             id="path4168"
             style="fill:#fbc707;fill-opacity:1;fill-rule:nonzero;stroke:none"
             d="m 346.091,73.822 -97.57,0 0,15.449 97.57,0 0,-15.449 z" />
          <g
             transform="translate(75.5791,96.9473)"
             id="g4170">
            <path
               inkscape:connector-curvature="0"
               id="path4172"
               style="fill:#ffffff;fill-opacity:1;fill-rule:nonzero;stroke:none"
               d="m 0,0 0,17.723 c -1.406,0.647 -2.667,1.074 -3.783,1.308 -1.109,0.235 -2.329,0.359 -3.637,0.359 -2.943,0 -5.21,-1.007 -6.85,-3.033 -1.632,-2.025 -2.439,-4.919 -2.439,-8.639 0,-3.666 0.621,-6.464 1.889,-8.379 1.267,-1.888 3.279,-2.866 6.056,-2.866 1.488,0 2.991,0.331 4.513,0.992 C -2.735,-1.874 -1.323,-1.033 0,0 m 5.223,-7.62 -5.223,0 0,3.224 c -1.502,-1.309 -3.073,-2.301 -4.699,-3.018 -1.619,-0.743 -3.39,-1.102 -5.306,-1.102 -3.7,0 -6.648,1.434 -8.806,4.286 -2.177,2.852 -3.273,6.807 -3.273,11.865 0,2.632 0.366,4.961 1.13,7.013 0.751,2.068 1.757,3.818 3.046,5.265 1.255,1.405 2.722,2.481 4.39,3.225 1.674,0.729 3.417,1.102 5.208,1.102 1.633,0 3.08,-0.179 4.335,-0.51 1.26,-0.344 2.583,-0.882 3.975,-1.598 l 0,13.382 5.223,0 0,-43.134 z" />
          </g>
          <path
             inkscape:connector-curvature="0"
             id="path4174"
             style="fill:#ffffff;fill-opacity:1;fill-rule:nonzero;stroke:none"
             d="m 92.667,89.327 -5.223,0 0,30.979 5.223,0 0,-30.979 z m 0.289,36.187 -5.815,0 0,5.376 5.815,0 0,-5.376 z" />
          <g
             transform="translate(120.3174,97.8428)"
             id="g4176">
            <path
               inkscape:connector-curvature="0"
               id="path4178"
               style="fill:#ffffff;fill-opacity:1;fill-rule:nonzero;stroke:none"
               d="m 0,0 0,16.896 c -1.392,0.633 -2.687,1.075 -3.893,1.349 -1.178,0.276 -2.378,0.401 -3.569,0.401 -2.873,0 -5.126,-0.965 -6.78,-2.881 -1.654,-1.914 -2.481,-4.712 -2.481,-8.378 0,-3.473 0.62,-6.118 1.847,-7.91 1.22,-1.791 3.245,-2.701 6.084,-2.701 1.523,0 3.053,0.303 4.582,0.882 C -2.687,-1.75 -1.281,-0.978 0,0 m 5.215,-4.988 c 0,-5.237 -1.191,-9.095 -3.575,-11.548 -2.384,-2.453 -6.057,-3.693 -11.017,-3.693 -1.641,0 -3.246,0.124 -4.81,0.358 -1.557,0.234 -3.101,0.538 -4.616,0.965 l 0,5.319 0.276,0 c 0.846,-0.331 2.197,-0.73 4.05,-1.213 1.854,-0.482 3.694,-0.73 5.554,-0.73 1.764,0 3.232,0.207 4.389,0.634 1.171,0.427 2.081,1.005 2.728,1.778 0.648,0.703 1.11,1.585 1.378,2.59 0.297,1.02 0.428,2.15 0.428,3.404 l 0,2.812 c -1.578,-1.255 -3.08,-2.206 -4.514,-2.812 -1.446,-0.62 -3.265,-0.951 -5.491,-0.951 -3.7,0 -6.642,1.351 -8.819,4.024 -2.178,2.674 -3.266,6.449 -3.266,11.327 0,2.661 0.372,4.961 1.123,6.891 0.751,1.942 1.778,3.61 3.08,5.016 1.192,1.309 2.659,2.329 4.375,3.073 1.73,0.716 3.438,1.089 5.154,1.089 1.792,0 3.294,-0.18 4.506,-0.537 1.213,-0.372 2.495,-0.924 3.852,-1.655 l 0.324,1.31 4.891,0 0,-27.451 z" />
          </g>
          <path
             inkscape:connector-curvature="0"
             id="path4180"
             style="fill:#ffffff;fill-opacity:1;fill-rule:nonzero;stroke:none"
             d="m 137.392,89.327 -5.223,0 0,30.979 5.223,0 0,-30.979 z m 0.296,36.187 -5.823,0 0,5.376 5.823,0 0,-5.376 z" />
          <g
             transform="translate(163.5195,89.5479)"
             id="g4182">
            <path
               inkscape:connector-curvature="0"
               id="path4184"
               style="fill:#ffffff;fill-opacity:1;fill-rule:nonzero;stroke:none"
               d="m 0,0 c -0.978,-0.276 -2.046,-0.482 -3.204,-0.635 -1.158,-0.165 -2.184,-0.247 -3.087,-0.247 -3.155,0 -5.56,0.84 -7.214,2.535 -1.633,1.709 -2.46,4.438 -2.46,8.2 l 0,16.495 -3.507,0 0,4.41 3.507,0 0,8.861 5.224,0 0,-8.861 10.741,0 0,-4.41 -10.741,0 0,-14.153 c 0,-1.626 0.034,-2.908 0.11,-3.817 0.075,-0.923 0.337,-1.777 0.771,-2.576 0.414,-0.731 0.964,-1.282 1.675,-1.627 0.709,-0.344 1.797,-0.496 3.251,-0.496 0.848,0 1.744,0.111 2.661,0.344 0.922,0.235 1.598,0.456 1.99,0.621 L 0,4.644 0,0 Z" />
          </g>
          <g
             transform="translate(188.3799,96.9336)"
             id="g4186">
            <path
               inkscape:connector-curvature="0"
               id="path4188"
               style="fill:#ffffff;fill-opacity:1;fill-rule:nonzero;stroke:none"
               d="M 0,0 0,8.654 C -1.585,8.572 -3.445,8.434 -5.588,8.24 -7.725,8.048 -9.419,7.8 -10.68,7.441 c -1.482,-0.427 -2.687,-1.087 -3.604,-1.984 -0.923,-0.923 -1.378,-2.149 -1.378,-3.734 0,-1.778 0.531,-3.115 1.592,-4.01 1.074,-0.91 2.694,-1.364 4.884,-1.364 1.827,0 3.487,0.358 4.99,1.075 C -2.688,-1.86 -1.282,-1.006 0,0 m 5.215,-7.606 -5.215,0 0,3.265 c -0.462,-0.317 -1.082,-0.743 -1.867,-1.322 -0.772,-0.552 -1.537,-1.007 -2.275,-1.323 -0.86,-0.442 -1.86,-0.8 -2.983,-1.075 -1.123,-0.303 -2.432,-0.441 -3.948,-0.441 -2.777,0 -5.126,0.923 -7.062,2.77 -1.936,1.86 -2.915,4.216 -2.915,7.083 0,2.356 0.51,4.257 1.523,5.705 0.999,1.447 2.425,2.59 4.285,3.431 1.875,0.827 4.135,1.406 6.76,1.695 2.639,0.29 5.471,0.51 8.482,0.648 l 0,0.826 c 0,1.186 -0.207,2.178 -0.627,2.949 -0.407,0.814 -0.993,1.406 -1.765,1.861 -0.736,0.427 -1.626,0.717 -2.652,0.854 -1.034,0.152 -2.102,0.235 -3.231,0.235 -1.351,0 -2.873,-0.179 -4.541,-0.552 -1.675,-0.372 -3.404,-0.923 -5.189,-1.611 l -0.282,0 0,5.291 c 1.027,0.276 2.488,0.592 4.41,0.936 1.915,0.318 3.803,0.484 5.664,0.484 2.177,0 4.065,-0.18 5.691,-0.525 1.605,-0.372 3.004,-0.978 4.175,-1.86 1.165,-0.854 2.047,-1.957 2.66,-3.293 0.599,-1.351 0.902,-3.032 0.902,-5.03 l 0,-21.001 z" />
          </g>
          <path
             inkscape:connector-curvature="0"
             id="path4190"
             style="fill:#ffffff;fill-opacity:1;fill-rule:nonzero;stroke:none"
             d="m 204.096,89.327 -5.223,0 0,43.134 5.223,0 0,-43.134 z" />
          <g
             transform="translate(252.8384,89.3271)"
             id="g4192">
            <path
               inkscape:connector-curvature="0"
               id="path4194"
               style="fill:#ffffff;fill-opacity:1;fill-rule:nonzero;stroke:none"
               d="m 0,0 -24.923,0 0,3.899 18.012,22.669 -17.625,0 0,4.411 24.088,0 0,-3.75 L -18.527,4.409 0,4.409 0,0 Z" />
          </g>
          <g
             transform="translate(278.7939,104.8027)"
             id="g4196">
            <path
               inkscape:connector-curvature="0"
               id="path4198"
               style="fill:#ffffff;fill-opacity:1;fill-rule:nonzero;stroke:none"
               d="m 0,0 c 0,3.996 -0.794,6.973 -2.378,8.915 -1.577,1.944 -3.756,2.922 -6.567,2.922 -2.846,0 -5.042,-0.978 -6.621,-2.922 -1.558,-1.942 -2.348,-4.919 -2.348,-8.915 0,-3.872 0.79,-6.808 2.37,-8.82 1.577,-1.997 3.776,-2.99 6.599,-2.99 2.785,0 4.968,0.993 6.547,2.977 C -0.801,-6.849 0,-3.914 0,0 m 5.361,0 c 0,-5.058 -1.296,-9.055 -3.886,-11.976 -2.591,-2.934 -6.071,-4.395 -10.42,-4.395 -4.394,0 -7.874,1.461 -10.459,4.395 -2.583,2.921 -3.879,6.918 -3.879,11.976 0,5.043 1.296,9.054 3.879,11.975 2.585,2.949 6.065,4.41 10.459,4.41 4.349,0 7.829,-1.461 10.42,-4.41 C 4.065,9.054 5.361,5.043 5.361,0" />
          </g>
          <g
             transform="translate(314.4307,89.3271)"
             id="g4200">
            <path
               inkscape:connector-curvature="0"
               id="path4202"
               style="fill:#ffffff;fill-opacity:1;fill-rule:nonzero;stroke:none"
               d="m 0,0 -5.224,0 0,17.639 c 0,1.419 -0.088,2.743 -0.255,3.997 -0.171,1.254 -0.468,2.231 -0.909,2.934 -0.462,0.758 -1.13,1.337 -2.005,1.723 -0.861,0.372 -1.991,0.565 -3.362,0.565 -1.427,0 -2.908,-0.344 -4.472,-1.047 -1.537,-0.703 -3.032,-1.599 -4.451,-2.687 l 0,-23.124 -5.216,0 0,30.979 5.216,0 0,-3.418 c 1.626,1.35 3.307,2.411 5.043,3.156 1.743,0.758 3.514,1.143 5.347,1.143 3.343,0 5.899,-1.006 7.656,-3.032 C -0.889,26.831 0,23.923 0,20.119 L 0,0 Z" />
          </g>
          <g
             transform="translate(341.6191,108.2891)"
             id="g4204">
            <path
               inkscape:connector-curvature="0"
               id="path4206"
               style="fill:#ffffff;fill-opacity:1;fill-rule:nonzero;stroke:none"
               d="m 0,0 c -0.027,2.783 -0.717,4.933 -2.067,6.449 -1.351,1.516 -3.411,2.274 -6.181,2.274 -2.776,0 -4.995,-0.841 -6.649,-2.508 C -16.53,4.548 -17.474,2.48 -17.694,0 L 0,0 Z m 5.063,-4.037 -22.757,0 c 0,-1.889 0.289,-3.528 0.861,-4.934 0.572,-1.42 1.351,-2.563 2.35,-3.472 0.958,-0.883 2.094,-1.531 3.417,-1.972 1.316,-0.454 2.77,-0.648 4.362,-0.648 2.101,0 4.216,0.415 6.346,1.241 2.122,0.841 3.644,1.668 4.546,2.467 l 0.284,0 0,-5.664 c -1.765,-0.745 -3.549,-1.365 -5.396,-1.86 -1.833,-0.497 -3.741,-0.744 -5.767,-0.744 -5.147,0 -9.157,1.378 -12.037,4.176 -2.894,2.783 -4.34,6.711 -4.34,11.823 0,5.071 1.391,9.095 4.147,12.058 2.764,2.976 6.408,4.464 10.914,4.464 4.183,0 7.407,-1.212 9.674,-3.666 C 3.934,6.779 5.063,3.307 5.063,-1.199 l 0,-2.838 z" />
          </g>
        </g>
      </g>
    </g>
  </g>
</svg>
